<?xml version="1.0" encoding="utf-8"?>
<!-- Generator: Adobe Illustrator 15.0.0, SVG Export Plug-In  -->
<!DOCTYPE svg PUBLIC "-//W3C//DTD SVG 1.1//EN" "http://www.w3.org/Graphics/SVG/1.1/DTD/svg11.dtd" [
	<!ENTITY ns_flows "http://ns.adobe.com/Flows/1.0/">
]>
<svg version="1.1"
	 xmlns="http://www.w3.org/2000/svg" xmlns:xlink="http://www.w3.org/1999/xlink" xmlns:a="http://ns.adobe.com/AdobeSVGViewerExtensions/3.0/"
	 x="0px" y="0px" width="50px" height="50px" viewBox="-0.704 -7.493 50 50" enable-background="new -0.704 -7.493 50 50"
	 xml:space="preserve">
<defs>
</defs>
<path d="M46.576,26.42l0.002-0.007l-0.039-0.023c-0.063-0.043-0.132-0.076-0.197-0.116L26.003,14.288v-2.507
	c0,0,0-1.854-2.333-3.042c0,0-1.844-0.49-1.719-2.958c0,0,0.188-2.219,2.625-2.406c0,0,2.438,0.094,2.813,2.031
	c0,0-0.063,2.656,2.125,2.25c0,0,1.469-0.219,1.25-2.594c0,0-0.188-3.125-3.844-4.688c0,0-2.188-0.844-4.719,0
	c0,0-3.125,1.281-3.656,5.281c0,0-0.438,3.625,2.625,5.375l1.125,0.844c0,0,0.5,0.344,0.5,0.906v1.383L2.266,26.246l0.006,0.023
	c-2.026,1.238-2.859,3.81-1.832,6.013C1.242,34,2.945,34.996,4.723,35l0.004,0.014l39.137-0.001c2.611,0,4.729-2.117,4.729-4.729
	C48.592,28.685,47.792,27.276,46.576,26.42z M43.863,31.763H4.727l-0.001-0.004c-0.556-0.001-1.089-0.313-1.339-0.85
	c-0.345-0.74-0.025-1.62,0.715-1.965l20.193-11.746L44.62,29.015l-0.001,0.004c0.431,0.258,0.723,0.726,0.723,1.265
	C45.342,31.1,44.68,31.763,43.863,31.763z"/>
</svg>
