<?xml version="1.0" encoding="utf-8"?>
<!-- Generator: Adobe Illustrator 15.0.0, SVG Export Plug-In  -->
<!DOCTYPE svg PUBLIC "-//W3C//DTD SVG 1.1//EN" "http://www.w3.org/Graphics/SVG/1.1/DTD/svg11.dtd" [
	<!ENTITY ns_flows "http://ns.adobe.com/Flows/1.0/">
]>
<svg version="1.1"
	 xmlns="http://www.w3.org/2000/svg" xmlns:xlink="http://www.w3.org/1999/xlink" xmlns:a="http://ns.adobe.com/AdobeSVGViewerExtensions/3.0/"
	 x="0px" y="0px" width="50px" height="50px" viewBox="-2 -2 50 50" enable-background="new -2 -2 50 50" xml:space="preserve">
<defs>
</defs>
<path d="M44.229,21.233V7.075C44.229,4.233,42.346,0,37.154,0c-4.371,0-6.375,2.998-6.911,5.641
	c-2.107,0.674-3.654,2.635-3.654,4.976h10.505c0-2.203-1.348-4.077-3.266-4.863c0.337-1.02,1.175-2.211,3.326-2.211
	c3.23,0,3.524,2.712,3.533,3.533v14.159H1.771C0.795,21.233,0,22.02,0,22.996v1.771c0,0.976,0.795,1.771,1.771,1.771v5.302
	c0,3.838,3.23,7.604,6.979,8.598c-0.182,0.864-0.631,2.021-1.676,2.021c-0.977,0-1.771,0.795-1.771,1.771
	C5.305,45.203,6.099,46,7.075,46c3.058,0,4.854-2.574,5.226-5.315h21.39C34.062,43.426,35.867,46,38.916,46
	c0.985,0,1.771-0.797,1.771-1.771c0-0.977-0.786-1.771-1.771-1.771c-1.036,0-1.494-1.157-1.667-2.021
	c3.741-0.994,6.979-4.76,6.979-8.598v-5.302c0.977,0,1.771-0.795,1.771-1.771v-1.771C46,22.02,45.205,21.233,44.229,21.233
	L44.229,21.233z M27.341,12.595l0.104-0.424c0.121-0.475,0.596-0.769,1.08-0.647c0.475,0.121,0.76,0.596,0.639,1.071l-0.104,0.432
	c-0.104,0.406-0.467,0.674-0.863,0.674c-0.069,0-0.139-0.009-0.207-0.035C27.514,13.554,27.22,13.07,27.341,12.595L27.341,12.595z
	 M26.478,16.059l0.172-0.7c0.121-0.466,0.588-0.76,1.072-0.639c0.475,0.121,0.76,0.596,0.646,1.071l-0.172,0.691
	c-0.104,0.406-0.467,0.674-0.864,0.674c-0.069,0-0.138-0.009-0.207-0.026C26.649,17.009,26.356,16.525,26.478,16.059L26.478,16.059z
	 M25.683,19.247l0.104-0.432c0.121-0.466,0.596-0.76,1.07-0.639c0.476,0.121,0.77,0.596,0.648,1.071l-0.112,0.432
	c-0.095,0.397-0.458,0.665-0.854,0.665c-0.07,0-0.139-0.009-0.217-0.026C25.847,20.197,25.562,19.722,25.683,19.247L25.683,19.247z
	 M36.351,12.595c0.112,0.475-0.173,0.959-0.647,1.071c-0.069,0.026-0.139,0.035-0.216,0.035c-0.397,0-0.752-0.268-0.855-0.674
	l-0.104-0.432c-0.121-0.476,0.164-0.95,0.639-1.071c0.467-0.121,0.959,0.173,1.071,0.647L36.351,12.595z M37.215,16.059
	c0.112,0.466-0.173,0.95-0.648,1.071c-0.068,0.017-0.138,0.026-0.216,0.026c-0.397,0-0.751-0.268-0.854-0.674l-0.173-0.691
	c-0.112-0.475,0.173-0.95,0.647-1.071c0.458-0.121,0.95,0.173,1.071,0.639L37.215,16.059z M36.834,18.175
	c0.467-0.121,0.951,0.173,1.072,0.639l0.104,0.432c0.121,0.475-0.173,0.95-0.64,1.071c-0.077,0.018-0.146,0.026-0.216,0.026
	c-0.397,0-0.76-0.268-0.864-0.665l-0.104-0.432C36.065,18.771,36.359,18.296,36.834,18.175L36.834,18.175z M30.96,12.828v-0.441
	c0-0.492,0.397-0.89,0.882-0.89c0.492,0,0.89,0.397,0.89,0.89v0.441c0,0.484-0.397,0.881-0.89,0.881
	C31.357,13.709,30.96,13.312,30.96,12.828L30.96,12.828z M30.96,15.575c0-0.484,0.397-0.881,0.882-0.881
	c0.492,0,0.89,0.397,0.89,0.881v0.691c0,0.493-0.397,0.89-0.89,0.89c-0.484,0-0.882-0.397-0.882-0.89V15.575z M30.96,19.022
	c0-0.493,0.397-0.89,0.882-0.89c0.492,0,0.89,0.397,0.89,0.89v0.44c0,0.484-0.397,0.881-0.89,0.881
	c-0.484,0-0.882-0.397-0.882-0.881V19.022z M30.96,19.022"/>
</svg>
