<?xml version="1.0" encoding="utf-8"?>
<!-- Generator: Adobe Illustrator 15.0.0, SVG Export Plug-In . SVG Version: 6.00 Build 0)  -->
<!DOCTYPE svg PUBLIC "-//W3C//DTD SVG 1.1//EN" "http://www.w3.org/Graphics/SVG/1.1/DTD/svg11.dtd">
<svg version="1.1" id="Camada_1" xmlns="http://www.w3.org/2000/svg" xmlns:xlink="http://www.w3.org/1999/xlink" x="0px" y="0px"
	 width="80px" height="80px" viewBox="0 0 80 80" enable-background="new 0 0 80 80" xml:space="preserve">
<g>
	<rect x="17.514" y="12.851" fill="#231E1F" width="2.063" height="54.299"/>
	<rect x="30.633" y="12.851" fill="#231E1F" width="2.064" height="54.299"/>
	<rect x="14.314" y="12.851" fill="#231E1F" width="0.748" height="54.299"/>
	<rect x="47.559" y="12.851" fill="#231E1F" width="0.75" height="54.299"/>
	<rect x="65.822" y="12.851" fill="#231E1F" width="0.748" height="54.299"/>
	<rect x="73.242" y="12.851" fill="#231E1F" width="0.891" height="54.299"/>
	<rect x="11.002" y="12.851" fill="#231E1F" width="1.074" height="54.299"/>
	<rect x="5.867" y="12.851" fill="#231E1F" width="3.813" height="54.299"/>
	<rect x="60.213" y="12.851" fill="#231E1F" width="4.256" height="54.299"/>
	<rect x="67.305" y="12.851" fill="#231E1F" width="3.104" height="54.299"/>
	<rect x="21.559" y="12.851" fill="#231E1F" width="5.939" height="54.299"/>
	<rect x="33.883" y="12.851" fill="#231E1F" width="9.928" height="54.299"/>
	<rect x="50.814" y="12.851" fill="#231E1F" width="2.26" height="54.299"/>
	<rect x="54.537" y="12.851" fill="#231E1F" width="2.262" height="54.299"/>
</g>
<g>
	<path fill="#09151B" d="M172.936,39.085c-1.105-0.472-4.564-1.869-7.111-2.724c-0.016,0.159-6.188-7.537-8.281-9.983
		c-0.57-0.665-1.631-0.751-2.732-0.751c-0.053,0-4.297-0.002-8.832-0.002v26.682h7.645c-0.035-0.412-0.109-0.945-0.109-1.391
		c0-4.254,3.447-7.762,7.699-7.762c3.02,0,5.629,1.732,6.891,4.205h6.326v-6.534C174.43,40.825,174.418,39.718,172.936,39.085
		 M161.717,36.639h-12.545c-0.738,0-1.543-0.507-1.543-1.245v-6.746c0-0.737,0.805-1.492,1.543-1.492h6.404
		c0.83,0,1.252,0.499,1.783,1.115c0.928,1.076,5.33,6.162,5.693,7.07C163.414,36.25,162.969,36.639,161.717,36.639"/>
	<rect x="104.746" y="22.619" fill="#09151B" width="39.996" height="20.205"/>
	<path fill="#C7D8DF" d="M173.922,40.223"/>
	<path fill="#09151B" d="M113.596,50.951c0,0.957,0.211,1.865,0.586,2.682c1.018,2.211,3.25,3.748,5.844,3.748
		c2.592,0,4.826-1.537,5.844-3.748c0.375-0.816,0.586-1.725,0.586-2.682c0-3.551-2.879-6.43-6.43-6.43S113.596,47.4,113.596,50.951
		 M116.041,50.949c0-2.201,1.783-3.982,3.984-3.984c2.201,0.002,3.986,1.783,3.986,3.984c0,2.203-1.785,3.986-3.986,3.986
		S116.041,53.152,116.041,50.949"/>
	<rect x="168.656" y="48.596" fill="#09151B" width="7.01" height="3.711"/>
	<path fill="#09151B" d="M112.326,50.916c0-3.037,1.76-5.705,4.314-6.957l-7.906,0.082l0.025,8.266h3.77
		C112.424,51.895,112.326,51.361,112.326,50.916"/>
	<path fill="#09151B" d="M123.377,43.904c2.566,1.248,4.342,3.965,4.342,7.012c0,0.445-0.092,0.979-0.197,1.391h20.105v-8.443
		L123.377,43.904z"/>
	<path fill="#09151B" d="M154.783,50.951c0,0.957,0.211,1.865,0.588,2.682c1.016,2.211,3.248,3.746,5.842,3.746
		s4.826-1.535,5.842-3.746c0.377-0.816,0.588-1.725,0.588-2.682c0-3.551-2.879-6.432-6.43-6.432S154.783,47.4,154.783,50.951
		 M157.229,50.949c0-2.201,1.783-3.984,3.984-3.984s3.984,1.783,3.984,3.984s-1.783,3.984-3.984,3.986
		C159.012,54.934,157.229,53.15,157.229,50.949"/>
	<rect x="104.334" y="24.544" fill="#FFFFFF" width="18.631" height="0.825"/>
	<rect x="104.334" y="26.743" fill="#FFFFFF" width="14.172" height="0.824"/>
	<rect x="104.334" y="28.805" fill="#FFFFFF" width="22.121" height="0.825"/>
	<rect x="104.334" y="31.003" fill="#FFFFFF" width="14.172" height="0.825"/>
	<rect x="104.334" y="33.065" fill="#FFFFFF" width="17.332" height="0.824"/>
	<rect x="104.334" y="35.265" fill="#FFFFFF" width="8.354" height="0.824"/>
</g>
<g id="XMLID_2_">
	<g>
		<path d="M231.83,23.56c13.43,1.28,26.77,2.29,39.96,2.94c0.55-5.91-6.86-4.48-11.24-4.78c-6.62-0.46-11.93-0.99-18.479-1.48
			C237.78,19.92,231.65,18.1,231.83,23.56z M230.98,38.22c-0.16,1.98-1.32,6.73,0.42,7.57c1.619,0.78,5.199-2.74,6.55-3.62
			c1.859-1.2,5.09-3.42,6.67-3.28c3.56,0.31,5.64,3.68,4.3,6.85c-0.87,2.069-4.12,3.439-6.28,4.83c-2.87,1.859-4.18,2.67-6.52,4.18
			c-4.01,2.59-8.83,6.73-13.3,7.69c-4.63,0.989-10.271-1.921-15.21-0.83c-1.15-5.54-0.88-11.61-1.83-17.23
			c1.84-0.78,4.16-0.32,6.109-0.8c3.79-5.93,7.681-11.57,11.57-17.22c2.12,0.44,4.04,0.39,6.05,0.53c0.19-3.26-0.21-7.87,3.641-9.3
			c1.63-0.6,6.119,0.07,9.159,0.3c6.36,0.48,12.12,1.14,18.7,1.58c3.38,0.22,10.04-0.77,12.391,2.84c1.72,2.61,0.22,9.5-0.03,12.83
			c-0.18,2.43-0.42,5.32-0.51,6.61c-0.21,3.14,0.12,7.2-2.971,9.05c-3.109,1.851-7.109-0.52-11.399-0.21
			c-1.34,2.101-2.721,4.101-5.48,2.46c-1.189,0.98-2.31,2.19-3.93,2.061c-1.09-0.41-1.97-0.891-2.3-1.58
			c-1.261,2.35-3.79,3.29-6.08,1.37c3.25-2.86,6.97-4.5,10.31-7.12c3.061,0.42,5.971,0.46,9.521,0.72c2.6,0.2,7.29,1.46,8.91-0.36
			c1.409-1.59,0.96-5.06,1.149-7.419c0.23-2.83,0.25-5.09,0.69-7.61c-13.23-1.08-26.32-1.77-39.63-3.07
			C231.09,32.79,231.23,34.95,230.98,38.22z"/>
		<path fill="#FFFFFF" d="M271.79,26.5c-13.19-0.65-26.53-1.66-39.96-2.94c-0.18-5.46,5.95-3.64,10.24-3.32
			c6.55,0.49,11.859,1.02,18.479,1.48C264.93,22.02,272.34,20.59,271.79,26.5z"/>
	</g>
	<g>
	</g>
</g>
<path fill="#020002" d="M359.888,36.022h-3.978V24.09c0-8.785-7.125-15.911-15.91-15.911c-8.789,0-15.91,7.126-15.91,15.911v11.932
	h-3.978c-2.188,0-3.978,1.791-3.978,3.979v27.843c0,2.186,1.789,3.977,3.978,3.977h39.775c2.185,0,3.978-1.791,3.978-3.977V40
	C363.865,37.813,362.072,36.022,359.888,36.022 M340,59.887c-2.197,0-3.978-1.779-3.978-3.975c0-2.197,1.78-3.979,3.978-3.979
	c2.194,0,3.978,1.781,3.978,3.979C343.978,58.107,342.194,59.887,340,59.887 M347.956,36.022h-15.912V24.09
	c0-4.387,3.567-7.955,7.956-7.955s7.956,3.568,7.956,7.955V36.022z"/>
</svg>
