<?xml version="1.0" encoding="utf-8"?>
<!-- Generator: Adobe Illustrator 15.0.0, SVG Export Plug-In  -->
<!DOCTYPE svg PUBLIC "-//W3C//DTD SVG 1.1//EN" "http://www.w3.org/Graphics/SVG/1.1/DTD/svg11.dtd" [
	<!ENTITY ns_flows "http://ns.adobe.com/Flows/1.0/">
]>
<svg version="1.1"
	 xmlns="http://www.w3.org/2000/svg" xmlns:xlink="http://www.w3.org/1999/xlink" xmlns:a="http://ns.adobe.com/AdobeSVGViewerExtensions/3.0/"
	 x="0px" y="0px" width="50px" height="50px" viewBox="-10.125 -5 50 50" enable-background="new -10.125 -5 50 50"
	 xml:space="preserve">
<defs>
</defs>
<path d="M22.036,0v6.357c0,0.593,0.481,1.073,1.073,1.073h6.64L22.036,0z"/>
<path d="M21.504,8.802c-0.493,0-0.892-0.399-0.892-0.892V0H0.892C0.4,0,0,0.4,0,0.892v38.216C0,39.6,0.4,40,0.892,40h27.966
	c0.493,0,0.892-0.4,0.892-0.892V8.802H21.504z M25.884,33.566c0,0.292-0.237,0.529-0.529,0.529H4.395
	c-0.292,0-0.529-0.238-0.529-0.529v-1.337c0-0.292,0.237-0.529,0.529-0.529h20.96c0.292,0,0.529,0.237,0.529,0.529V33.566z
	 M25.884,27.326c0,0.292-0.237,0.53-0.529,0.53H4.395c-0.292,0-0.529-0.237-0.529-0.53v-1.337c0-0.292,0.237-0.529,0.529-0.529
	h20.96c0.292,0,0.529,0.237,0.529,0.529V27.326z M25.884,21.086c0,0.293-0.237,0.53-0.529,0.53H4.395
	c-0.292,0-0.529-0.237-0.529-0.53V19.75c0-0.293,0.237-0.529,0.529-0.529h20.96c0.292,0,0.529,0.236,0.529,0.529V21.086z
	 M25.884,14.847c0,0.292-0.237,0.529-0.529,0.529H4.395c-0.292,0-0.529-0.237-0.529-0.529V13.51c0-0.292,0.237-0.529,0.529-0.529
	h20.96c0.292,0,0.529,0.237,0.529,0.529V14.847z"/>
</svg>
