<?xml version="1.0" encoding="utf-8"?>
<!-- Generator: Adobe Illustrator 15.0.0, SVG Export Plug-In  -->
<!DOCTYPE svg PUBLIC "-//W3C//DTD SVG 1.1//EN" "http://www.w3.org/Graphics/SVG/1.1/DTD/svg11.dtd" [
	<!ENTITY ns_flows "http://ns.adobe.com/Flows/1.0/">
]>
<svg version="1.1"
	 xmlns="http://www.w3.org/2000/svg" xmlns:xlink="http://www.w3.org/1999/xlink" xmlns:a="http://ns.adobe.com/AdobeSVGViewerExtensions/3.0/"
	 x="0px" y="0px" width="50px" height="50px" viewBox="-0.5 -7.367 50 50" enable-background="new -0.5 -7.367 50 50"
	 xml:space="preserve">
<defs>
</defs>
<path d="M25.166,0C15.423,0,7.529,7.895,7.529,17.629c0,9.742,7.894,17.637,17.636,17.637c9.734,0,17.629-7.895,17.629-17.637
	C42.794,7.895,34.899,0,25.166,0L25.166,0z M24.971,28.936c-6.115,0-11.071-4.959-11.071-11.075S18.855,6.796,24.971,6.796
	c6.108,0,11.065,4.949,11.065,11.065S31.079,28.936,24.971,28.936L24.971,28.936z M24.971,28.936"/>
<path d="M5.652,3.132H4.911l0.219,7.746H4.247V3.132h-0.65v7.798h-0.74V3.132H2.138v7.798H1.271l0.247-7.798h-0.68L0.023,9.726
	c0,0-0.023,0.248-0.023,0.345c0,1.017,0.471,1.922,1.211,2.513c2.429,2.743,0.77,5.546,0.77,6.212c0,0.735,0,12.059,0,12.059
	c0,0.008,0,0.015,0,0.022c0,0.695,0.561,1.256,1.255,1.256c0.697,0,1.258-0.561,1.258-1.256c0-0.007,0-0.015-0.008-0.022h0.008
	c0,0,0-11.184,0-12.037c0-0.777-1.399-3.993,0.941-6.385c0,0,0.007-0.005,0.007-0.013c0.576-0.54,0.95-1.286,1.009-2.124
	c0-0.06,0-0.209,0-0.209L5.652,3.132z M5.652,3.132"/>
<path d="M48.992,21.833c0.008-0.742-0.015-18.7-0.015-18.7h-0.411c0,0-3.342,1.883-3.342,15.873
	c2.564,0.703,1.488,3.506,1.293,3.867c0,0.708,0.052,8.027,0.052,8.027l0.007-0.007c0,0.007-0.007,0.015-0.007,0.03
	c0,0.665,0.546,1.211,1.211,1.211c0.673,0,1.219-0.546,1.211-1.211c0.008-0.008,0.008-0.023,0-0.023L49,30.892
	C49,30.892,49,22.653,48.992,21.833L48.992,21.833z M48.992,21.833"/>
</svg>
