<?xml version="1.0" encoding="utf-8"?>
<!-- Generator: Adobe Illustrator 15.0.0, SVG Export Plug-In  -->
<!DOCTYPE svg PUBLIC "-//W3C//DTD SVG 1.1//EN" "http://www.w3.org/Graphics/SVG/1.1/DTD/svg11.dtd" [
	<!ENTITY ns_flows "http://ns.adobe.com/Flows/1.0/">
]>
<svg version="1.1"
	 xmlns="http://www.w3.org/2000/svg" xmlns:xlink="http://www.w3.org/1999/xlink" xmlns:a="http://ns.adobe.com/AdobeSVGViewerExtensions/3.0/"
	 x="0px" y="0px" width="50px" height="50px" viewBox="-0.5 -12.619 50 50" enable-background="new -0.5 -12.619 50 50"
	 xml:space="preserve">
<defs>
</defs>
<path d="M17.794,17.022c-1.97-0.726-4.187,0.369-4.95,2.444c-0.765,2.076,0.213,4.346,2.183,5.072
	c1.97,0.725,4.186-0.369,4.95-2.444C20.742,20.019,19.765,17.748,17.794,17.022z M18.195,21.437
	c-0.382,1.038-1.491,1.584-2.476,1.222c-0.985-0.362-1.473-1.498-1.091-2.536c0.382-1.037,1.49-1.584,2.475-1.222
	C18.088,19.264,18.577,20.399,18.195,21.437z"/>
<path d="M43.311,17.022c-1.97-0.726-4.186,0.369-4.951,2.444c-0.764,2.076,0.213,4.346,2.183,5.072
	c1.971,0.725,4.187-0.369,4.951-2.444C46.258,20.019,45.28,17.748,43.311,17.022z M43.71,21.437
	c-0.383,1.038-1.49,1.584-2.476,1.222c-0.985-0.362-1.474-1.498-1.092-2.536c0.383-1.037,1.491-1.584,2.476-1.222
	C43.604,19.264,44.092,20.399,43.71,21.437z"/>
<path d="M43.091,5.359h-5.796V1.068c0-0.59-0.479-1.068-1.068-1.068H9.703c-0.59,0-1.068,0.478-1.068,1.068l-0.04,0.547H4.78
	c-0.208,0-0.377,0.169-0.377,0.377v0.827c0,0.148,0.087,0.276,0.212,0.338h12.244c0.208,0,0.377,0.169,0.377,0.377v0.826
	c0,0.208-0.168,0.377-0.377,0.377H1.53C1.404,4.798,1.317,4.925,1.317,5.074v0.827c0,0.149,0.087,0.276,0.212,0.337h13.072
	c0.208,0,0.377,0.169,0.377,0.377v0.827c0,0.208-0.169,0.377-0.377,0.377H3.336C3.211,7.88,3.124,8.008,3.124,8.157v0.827
	c0,0.149,0.087,0.276,0.213,0.337h14.05c0.208,0,0.377,0.169,0.377,0.377v0.827c0,0.208-0.169,0.377-0.377,0.377H0.212
	C0.087,10.963,0,11.09,0,11.239v0.826c0,0.149,0.087,0.277,0.212,0.338h12.432c0.208,0,0.377,0.169,0.377,0.377v0.827
	c0,0.208-0.168,0.377-0.377,0.377H7.69l-0.427,5.832c0,0.59,0.478,1.068,1.067,1.068h3.227c0.08-2.757,2.338-4.968,5.114-4.968
	s5.035,2.211,5.115,4.968h12.799h1.642h0.696c0.079-2.757,2.338-4.968,5.114-4.968s5.035,2.211,5.114,4.968h0.781h0.146l0.016-0.017
	c0.458-0.07,0.818-0.431,0.889-0.89L49,19.961v-0.146v-3.284v-5.039L43.091,5.359z M38.048,11.023V6.62h4.705l4.403,4.403H38.048z"
	/>
</svg>
