<?xml version="1.0" encoding="utf-8"?>
<!-- Generator: Adobe Illustrator 15.0.0, SVG Export Plug-In  -->
<!DOCTYPE svg PUBLIC "-//W3C//DTD SVG 1.1//EN" "http://www.w3.org/Graphics/SVG/1.1/DTD/svg11.dtd" [
	<!ENTITY ns_flows "http://ns.adobe.com/Flows/1.0/">
]>
<svg version="1.1"
	 xmlns="http://www.w3.org/2000/svg" xmlns:xlink="http://www.w3.org/1999/xlink" xmlns:a="http://ns.adobe.com/AdobeSVGViewerExtensions/3.0/"
	 x="0px" y="0px" width="50px" height="50px" viewBox="-0.5 -0.508 50 50" enable-background="new -0.5 -0.508 50 50"
	 xml:space="preserve">
<defs>
</defs>
<path d="M28.965,0H7.757C6.883,0,6.174,0.709,6.174,1.584v12.955c0,0.875,0.709,1.584,1.583,1.584h21.208
	c0.875,0,1.584-0.709,1.584-1.584V1.584C30.549,0.709,29.84,0,28.965,0z M28.777,14.396H7.944V1.729h20.833V14.396z"/>
<rect x="14.174" y="15.446" width="2.292" height="6.417"/>
<rect x="20.258" y="15.446" width="2.291" height="6.417"/>
<path d="M48.302,20.551c-0.253-0.171-0.557-0.271-0.885-0.271h-1.002H25.003h-1.002H2.585H1.583c-0.328,0-0.633,0.1-0.885,0.271
	C0.277,20.835,0,21.317,0,21.863v0.001v2.543V47.4c0,0.875,0.709,1.584,1.583,1.584h1.002c0.875,0,1.583-0.709,1.583-1.584V24.407
	h18.249V47.4c0,0.875,0.709,1.584,1.583,1.584h1.002c0.875,0,1.583-0.709,1.583-1.584v-6.495h18.245V47.4
	c0,0.875,0.709,1.584,1.583,1.584h1.002c0.875,0,1.583-0.709,1.583-1.584V24.407v-2.543v-0.001
	C49,21.317,48.723,20.835,48.302,20.551z M26.586,38.489v-5.668h18.245v5.668H26.586z M44.831,30.405H26.586v-5.998h18.245V30.405z"
	/>
<circle cx="35.752" cy="27.468" r="1.188"/>
<circle cx="35.752" cy="35.53" r="1.188"/>
</svg>
