<?xml version="1.0" encoding="utf-8"?>
<!-- Generator: Adobe Illustrator 15.0.0, SVG Export Plug-In  -->
<!DOCTYPE svg PUBLIC "-//W3C//DTD SVG 1.1//EN" "http://www.w3.org/Graphics/SVG/1.1/DTD/svg11.dtd" [
	<!ENTITY ns_flows "http://ns.adobe.com/Flows/1.0/">
]>
<svg version="1.1"
	 xmlns="http://www.w3.org/2000/svg" xmlns:xlink="http://www.w3.org/1999/xlink" xmlns:a="http://ns.adobe.com/AdobeSVGViewerExtensions/3.0/"
	 x="0px" y="0px" width="50px" height="50px" viewBox="-6.388 -3 50 50" enable-background="new -6.388 -3 50 50"
	 xml:space="preserve">
<defs>
</defs>
<path d="M5.073,38.917h27.079V28.773H5.073V38.917z M15.228,33.846c0-0.935,0.762-1.694,1.695-1.694h3.379
	c0.934,0,1.695,0.76,1.695,1.694v1.694c0,0-0.844-1.033-3.392-1.033c-2.534,0-3.378,1.033-3.378,1.033V33.846z M15.228,33.846"/>
<path d="M5.073,27.079h27.079V16.923H5.073V27.079z M15.228,21.997c0-0.927,0.762-1.687,1.695-1.687h3.379
	c0.934,0,1.695,0.76,1.695,1.687v1.692c0,0-0.844-1.033-3.392-1.033c-2.534,0-3.378,1.033-3.378,1.033V21.997z M15.228,21.997"/>
<path d="M32.152,0H5.073C2.272,0,0,2.271,0,5.072v33.845C0,41.728,2.272,44,5.073,44h27.079c2.8,0,5.072-2.272,5.072-5.083V5.072
	C37.225,2.271,34.952,0,32.152,0L32.152,0z M33.845,38.917c0,0.935-0.76,1.695-1.692,1.695H5.073c-0.934,0-1.692-0.761-1.692-1.695
	V5.072c0-0.924,0.759-1.684,1.692-1.684h27.079c0.933,0,1.692,0.76,1.692,1.684V38.917z M33.845,38.917"/>
<path d="M5.073,15.229h27.079V5.072H5.073V15.229z M15.228,10.155c0-0.934,0.762-1.693,1.695-1.693h3.379
	c0.934,0,1.695,0.76,1.695,1.693v1.693c0,0-0.844-1.033-3.392-1.033c-2.534,0-3.378,1.033-3.378,1.033V10.155z M15.228,10.155"/>
</svg>
