<?xml version="1.0" encoding="utf-8"?>
<!-- Generator: Adobe Illustrator 15.0.0, SVG Export Plug-In  -->
<!DOCTYPE svg PUBLIC "-//W3C//DTD SVG 1.1//EN" "http://www.w3.org/Graphics/SVG/1.1/DTD/svg11.dtd" [
	<!ENTITY ns_flows "http://ns.adobe.com/Flows/1.0/">
]>
<svg version="1.1"
	 xmlns="http://www.w3.org/2000/svg" xmlns:xlink="http://www.w3.org/1999/xlink" xmlns:a="http://ns.adobe.com/AdobeSVGViewerExtensions/3.0/"
	 x="0px" y="0px" width="50px" height="50px" viewBox="-2 -9.383 50 50" enable-background="new -2 -9.383 50 50"
	 xml:space="preserve">
<defs>
</defs>
<g>
	<defs>
		<rect id="SVGID_2_" width="46" height="31.234"/>
	</defs>
	<clipPath id="SVGID_3_">
		<use xlink:href="#SVGID_2_"  overflow="visible"/>
	</clipPath>
	<path clip-path="url(#SVGID_3_)" d="M44.769,9.622h-1.797V2.003c0-0.522-0.425-0.946-0.947-0.946s-0.946,0.424-0.946,0.946v7.619
		h-1.254V2.003c0-0.522-0.423-0.946-0.946-0.946c-0.522,0-0.947,0.424-0.947,0.946v7.619h-1.254V2.003
		c0-0.522-0.423-0.946-0.946-0.946c-0.523,0-0.947,0.424-0.947,0.946v7.619h-3.178L34,3.595c0.193-0.486-0.044-1.036-0.53-1.229
		c-0.486-0.193-1.036,0.044-1.229,0.53l-2.673,6.726h-8.256l0.688-2.989c0.116-0.507-0.215-0.922-0.734-0.922h-1.672V4.519
		l1.751-1.496c0.397-0.339,0.444-0.937,0.104-1.335c-0.339-0.396-0.936-0.443-1.333-0.104l-0.521,0.445V0.947
		C19.592,0.424,19.169,0,18.646,0c-0.524,0-0.947,0.424-0.947,0.947v0.276l-0.557-0.563c-0.368-0.372-0.966-0.377-1.338-0.01
		s-0.377,0.967-0.009,1.339l1.904,1.929v1.792h-2.177c-0.52,0-0.851,0.414-0.734,0.922l0.688,2.989h-3.739
		c-0.677,0-1.23,0.554-1.23,1.231v3.313c0,0.677,0.553,1.23,1.23,1.23h33.032c0.678,0,1.231-0.554,1.231-1.23v-3.313
		C46,10.176,45.446,9.622,44.769,9.622L44.769,9.622z M44.769,9.622"/>
</g>
<path d="M34.264,25.43H15.983l-2.322-6.667c-0.172-0.494-0.711-0.755-1.206-0.583s-0.754,0.712-0.582,1.205l2.106,6.045h-2.408
	v-7.431c0-0.522-0.424-0.946-0.946-0.946c-0.523,0-0.947,0.424-0.947,0.946v7.431H8.992v-7.431c0-0.522-0.424-0.946-0.947-0.946
	c-0.523,0-0.946,0.424-0.946,0.946v7.431H6.412v-7.431c0-0.522-0.424-0.946-0.946-0.946s-0.947,0.424-0.947,0.946v7.431H3.833
	v-7.431c0-0.522-0.424-0.946-0.947-0.946c-0.523,0-0.946,0.424-0.946,0.946v7.431h-0.71C0.554,25.43,0,25.983,0,26.66v3.312
	c0,0.678,0.554,1.231,1.229,1.231h33.034c0.676,0,1.23-0.554,1.23-1.231V26.66C35.494,25.983,34.94,25.43,34.264,25.43L34.264,25.43
	z M34.264,25.43"/>
</svg>
