<?xml version="1.0" encoding="utf-8"?>
<!-- Generator: Adobe Illustrator 15.0.0, SVG Export Plug-In  -->
<!DOCTYPE svg PUBLIC "-//W3C//DTD SVG 1.1//EN" "http://www.w3.org/Graphics/SVG/1.1/DTD/svg11.dtd" [
	<!ENTITY ns_flows "http://ns.adobe.com/Flows/1.0/">
]>
<svg version="1.1"
	 xmlns="http://www.w3.org/2000/svg" xmlns:xlink="http://www.w3.org/1999/xlink" xmlns:a="http://ns.adobe.com/AdobeSVGViewerExtensions/3.0/"
	 x="0px" y="0px" width="50px" height="50px" viewBox="-5.75 -0.502 50 50" enable-background="new -5.75 -0.502 50 50"
	 xml:space="preserve">
<defs>
</defs>
<path d="M36.917,0H1.583C0.709,0,0,0.709,0,1.584v9.748h38.5V1.584C38.5,0.709,37.791,0,36.917,0z M7.167,7.914
	C5.97,7.914,5,6.944,5,5.748c0-1.197,0.97-2.167,2.167-2.167c1.197,0,2.167,0.97,2.167,2.167C9.333,6.944,8.363,7.914,7.167,7.914z
	 M13.524,7.914c-1.196,0-2.167-0.97-2.167-2.166c0-1.197,0.97-2.167,2.167-2.167c1.197,0,2.167,0.97,2.167,2.167
	C15.691,6.944,14.721,7.914,13.524,7.914z"/>
<path d="M0,14.165v33.248c0,0.874,0.709,1.583,1.583,1.583h35.333c0.875,0,1.583-0.709,1.583-1.583V14.165H0z M19.25,42.164
	c-6.075,0-11-4.925-11-11s4.925-11,11-11s11,4.925,11,11S25.325,42.164,19.25,42.164z"/>
<path d="M22.417,31.58c0,1.915-3.167,1.934-3.167,1.934c-2.5,0-3.5-1.934-3.5-1.934c-1.941,2.885-3.98,1.973-5.225,0.9
	c0.637,4.253,4.295,7.518,8.725,7.518c4.737,0,8.592-3.731,8.813-8.414C23.922,33.972,22.417,31.58,22.417,31.58z"/>
</svg>
