<?xml version="1.0" encoding="utf-8"?>
<!-- Generator: Adobe Illustrator 15.0.0, SVG Export Plug-In  -->
<!DOCTYPE svg PUBLIC "-//W3C//DTD SVG 1.1//EN" "http://www.w3.org/Graphics/SVG/1.1/DTD/svg11.dtd" [
	<!ENTITY ns_flows "http://ns.adobe.com/Flows/1.0/">
]>
<svg version="1.1"
	 xmlns="http://www.w3.org/2000/svg" xmlns:xlink="http://www.w3.org/1999/xlink" xmlns:a="http://ns.adobe.com/AdobeSVGViewerExtensions/3.0/"
	 x="0px" y="0px" width="50px" height="50px" viewBox="-8.623 -5 50 50" enable-background="new -8.623 -5 50 50"
	 xml:space="preserve">
<defs>
</defs>
<path d="M24.124,15.442v4.783h-4.783v-4.783H24.124 M25.474,13.57h-7.484c-0.287,0-0.521,0.233-0.521,0.521v7.485
	c0,0.288,0.234,0.521,0.521,0.521h7.484c0.288,0,0.521-0.233,0.521-0.521V14.09C25.995,13.803,25.762,13.57,25.474,13.57
	L25.474,13.57z"/>
<path d="M24.124,25.944v4.783h-4.783v-4.783H24.124 M25.474,24.072h-7.484c-0.287,0-0.521,0.233-0.521,0.521v7.485
	c0,0.288,0.234,0.521,0.521,0.521h7.484c0.288,0,0.521-0.234,0.521-0.521v-7.485C25.995,24.305,25.762,24.072,25.474,24.072
	L25.474,24.072z"/>
<path d="M13.57,25.944v4.783H8.785v-4.783H13.57 M14.92,24.072H7.436c-0.288,0-0.521,0.233-0.521,0.521v7.485
	c0,0.288,0.233,0.521,0.521,0.521h7.484c0.287,0,0.521-0.234,0.521-0.521v-7.485C15.441,24.305,15.207,24.072,14.92,24.072
	L14.92,24.072z"/>
<path d="M10.692,20.884c-0.247,0-0.487-0.099-0.661-0.274l-3.779-3.779c-0.366-0.365-0.366-0.958,0-1.323
	c0.366-0.366,0.959-0.366,1.325,0l3.115,3.117l3.861-3.861c0.366-0.366,0.959-0.366,1.325-0.001c0.364,0.366,0.364,0.958,0,1.324
	l-4.525,4.524C11.18,20.785,10.941,20.884,10.692,20.884z"/>
<path d="M21.005,4.68h-0.249c0.006-0.091,0.014-0.181,0.014-0.273C20.77,1.973,18.797,0,16.363,0c-2.433,0-4.405,1.973-4.405,4.407
	c0,0.092,0.008,0.182,0.014,0.273h-0.405H9.149v2.417c0,1.334,1.083,2.418,2.417,2.418h9.438c1.335,0,2.416-1.083,2.416-2.418V4.68
	H21.005z M14.297,4.407c0-1.142,0.926-2.067,2.066-2.067c1.143,0,2.067,0.925,2.067,2.067c0,0.092-0.008,0.183-0.02,0.273h-4.095
	C14.307,4.59,14.297,4.499,14.297,4.407z"/>
<path d="M30.986,4.627h-6.552v2.496h5.824v30.381H2.495V7.123h5.563V4.627H1.768C0.79,4.627,0,5.419,0,6.396v31.836
	C0,39.208,0.79,40,1.768,40h29.219c0.976,0,1.768-0.792,1.768-1.769V6.396C32.754,5.419,31.962,4.627,30.986,4.627z"/>
</svg>
