<?xml version="1.0" encoding="utf-8"?>
<!-- Generator: Adobe Illustrator 15.0.0, SVG Export Plug-In  -->
<!DOCTYPE svg PUBLIC "-//W3C//DTD SVG 1.1//EN" "http://www.w3.org/Graphics/SVG/1.1/DTD/svg11.dtd" [
	<!ENTITY ns_flows "http://ns.adobe.com/Flows/1.0/">
]>
<svg version="1.1"
	 xmlns="http://www.w3.org/2000/svg" xmlns:xlink="http://www.w3.org/1999/xlink" xmlns:a="http://ns.adobe.com/AdobeSVGViewerExtensions/3.0/"
	 x="0px" y="0px" width="50px" height="50px" viewBox="-0.5 -3.521 50 50" enable-background="new -0.5 -3.521 50 50"
	 xml:space="preserve">
<defs>
</defs>
<path d="M33.076,24.5H29.46c-0.453,0-0.821,0.367-0.821,0.821v12.38H17.638H16.26H5.258v-12.38c0-0.454-0.367-0.821-0.821-0.821
	H0.821C0.367,24.5,0,24.867,0,25.321v13.201v3.615c0,0.454,0.367,0.821,0.821,0.821h3.615H16.26h1.378H29.46h3.616
	c0.453,0,0.821-0.367,0.821-0.821v-3.615V25.321C33.897,24.867,33.529,24.5,33.076,24.5z"/>
<rect x="6.713" y="32.22" width="20.64" height="4.419"/>
<rect x="6.713" y="26.402" width="20.64" height="4.418"/>
<path d="M17.079,12.12l-0.046,0.057V12.12c0,0-11.813-0.374-14.721,5.593v5.222H4.4c0,0,2.313,0.224,2.313,2.312v1.79h10.32v-0.05
	l0.046,0.05h10.32v-1.79c0-2.088,2.312-2.312,2.312-2.312h2.088v-5.222C28.891,11.746,17.079,12.12,17.079,12.12z"/>
<polygon points="48.738,9.174 35.538,9.174 36.657,0 47.62,0 "/>
<path d="M48.402,41.244h-4.329c-0.554,0-1.002-0.45-1.002-1.003V10.217h-1.865v30.024c0,0.553-0.449,1.003-1.002,1.003h-4.33
	c-0.33,0-0.597,0.266-0.597,0.597v0.521c0,0.329,0.267,0.597,0.597,0.597h12.528c0.331,0,0.598-0.268,0.598-0.597v-0.521
	C49,41.51,48.733,41.244,48.402,41.244z"/>
</svg>
