<?xml version="1.0" encoding="utf-8"?>
<!-- Generator: Adobe Illustrator 15.0.2, SVG Export Plug-In . SVG Version: 6.00 Build 0)  -->
<!DOCTYPE svg PUBLIC "-//W3C//DTD SVG 1.1//EN" "http://www.w3.org/Graphics/SVG/1.1/DTD/svg11.dtd">
<svg version="1.1" id="Camada_1" xmlns="http://www.w3.org/2000/svg" xmlns:xlink="http://www.w3.org/1999/xlink" x="0px" y="0px"
	 width="595.279px" height="841.89px" viewBox="0 0 595.279 841.89" enable-background="new 0 0 595.279 841.89"
	 xml:space="preserve">
<g>
	<g>
		<path fill="#FFFFFF" d="M450.18,470.82c-4.021,4.021-4.021,9.652,0,13.676l0,0c4.022,4.021,9.653,4.021,13.676,0l113.425-114.23
			c4.022-4.022,4.022-9.653,0-13.675l0,0c-4.022-4.022-9.653-4.022-13.676,0L450.18,470.82z"/>
		<path fill="#FFFFFF" d="M563.605,484.496c4.022,4.021,9.653,4.021,13.676,0l0,0c4.022-4.023,4.022-9.654,0-13.676L463.051,357.395
			c-4.022-4.022-9.653-4.022-13.675,0l0,0c-4.022,4.022-4.022,9.653,0,13.675L563.605,484.496z"/>
	</g>
	<g>
		<g>
			<path fill="#FFFFFF" d="M25.44,468.406H14.983v-88.487h49.07v8.849H25.44v32.178h36.199v8.849H25.44V468.406z"/>
			<path fill="#FFFFFF" d="M105.078,469.21c-9.652,0-17.697-3.217-23.328-8.848s-8.849-14.48-8.849-24.938
				c0-10.459,2.413-19.307,8.044-24.938c4.827-6.436,12.066-9.653,20.915-9.653c8.045,0,14.48,2.414,19.307,8.044
				c4.827,5.631,7.24,12.871,7.24,21.721v6.436H83.359c0,8.043,2.414,13.674,5.632,17.697c4.021,4.021,8.849,5.631,15.284,5.631
				c7.239,0,14.479-1.609,20.915-4.826v8.848c-3.218,1.609-7.24,2.414-9.653,3.219C113.123,468.406,109.101,469.21,105.078,469.21z
				 M101.861,409.683c-5.631,0-9.652,1.609-12.87,4.827s-4.827,8.044-5.632,14.48h34.591c0-6.436-1.608-11.262-4.021-14.48
				C111.514,411.292,107.492,409.683,101.861,409.683z"/>
			<path fill="#FFFFFF" d="M172.651,469.21c-9.652,0-16.893-3.217-22.523-8.848s-8.045-14.48-8.045-24.938
				c0-11.262,2.414-19.307,8.045-25.742s12.871-8.849,22.523-8.849c3.218,0,6.436,0,9.653,0.805s5.632,1.609,8.045,3.218
				l-3.218,8.044c-2.413-0.805-4.827-1.609-7.24-2.414c-2.413-0.804-4.826-0.804-7.24-0.804c-13.675,0-20.11,8.849-20.11,25.742
				c0,8.043,1.608,14.479,4.826,18.502c3.218,4.021,8.045,6.436,14.48,6.436c5.631,0,11.262-0.805,16.893-3.219v8.85
				C184.718,468.406,179.086,469.21,172.651,469.21z"/>
			<path fill="#FFFFFF" d="M249.876,468.406v-42.635c0-5.63-1.608-9.652-4.021-12.066c-2.413-2.413-6.436-4.022-11.263-4.022
				c-7.239,0-12.066,1.609-15.284,5.631c-3.218,4.022-4.826,9.652-4.826,18.502v34.59h-9.653v-94.118h9.653v28.155
				c0,3.217,0,6.435-0.805,8.849h0.805c1.608-3.218,4.826-5.631,8.044-7.24c4.022-1.608,8.045-2.413,12.066-2.413
				c8.045,0,14.48,1.609,18.502,5.631c4.022,4.022,6.436,9.653,6.436,18.501v42.635H249.876z"/>
			<path fill="#FFFFFF" d="M320.666,468.406l-1.608-9.652h-0.805c-3.218,4.021-6.436,7.24-9.653,8.045
				c-3.218,1.607-7.239,2.412-12.066,2.412c-6.436,0-11.262-1.607-15.284-4.826c-4.021-3.217-5.631-8.045-5.631-14.48
				c0-13.674,10.457-20.109,32.177-20.914h11.263v-4.023c0-4.826-0.805-8.848-3.218-11.261c-2.413-2.413-5.631-4.022-10.458-4.022
				c-5.631,0-12.066,1.609-18.502,4.827l-3.218-7.24c3.218-1.609,6.436-3.218,10.458-4.022s8.044-1.609,11.262-1.609
				c8.045,0,13.676,1.609,17.697,5.631c4.022,4.022,5.632,8.849,5.632,16.894v45.047h-8.045V468.406z M298.143,461.167
				c6.435,0,11.262-1.609,14.479-4.828c3.218-3.217,5.631-8.043,5.631-14.479v-5.631H308.6c-8.044,0-13.675,1.607-16.893,4.021
				s-5.632,5.631-5.632,10.457c0,3.219,0.805,6.436,3.218,8.045C291.707,460.363,294.12,461.167,298.143,461.167z"/>
			<path fill="#FFFFFF" d="M378.585,400.834c3.218,0,5.632,0,8.045,0.805l-1.609,9.653c-2.413-0.805-4.826-0.805-7.239-0.805
				c-5.631,0-9.653,2.414-13.676,6.436c-4.022,4.022-5.631,9.653-5.631,16.088v35.395h-9.653v-65.962h8.045l0.804,12.066h0.805
				c2.413-4.022,5.631-7.24,8.849-9.653S374.564,400.834,378.585,400.834z"/>
		</g>
	</g>
</g>
</svg>
