<?xml version="1.0" encoding="UTF-8" standalone="no"?>
<svg width="33px" height="33px" viewBox="0 0 33 33" version="1.1" xmlns="http://www.w3.org/2000/svg" xmlns:xlink="http://www.w3.org/1999/xlink">
    <!-- Generator: Sketch 39.1 (31720) - http://www.bohemiancoding.com/sketch -->
    <title>Group</title>
    <desc>Created with Sketch.</desc>
    <defs>
        <polygon id="path-1" points="33 16.49995 33 0 0 0 0 16.49995 0 32.9999 33 32.9999"></polygon>
        <polygon id="path-3" points="33 16.49995 33 0 0 0 0 16.49995 0 32.9999 33 32.9999"></polygon>
    </defs>
    <g id="Page-1" stroke="none" stroke-width="1" fill="none" fill-rule="evenodd">
        <g id="Artboard" transform="translate(-10742.000000, -9315.000000)">
            <g id="Group" transform="translate(10742.000000, 9315.000000)">
                <g id="Page-1">
                    <g id="Group-3">
                        <mask id="mask-2" fill="white">
                            <use xlink:href="#path-1"></use>
                        </mask>
                        <g id="Clip-2"></g>
                        <path d="M16.5,-0.0001 C25.612,-0.0001 33,7.3869 33,16.4999 C33,25.6129 25.612,32.9999 16.5,32.9999 C7.387,32.9999 0,25.6129 0,16.4999 C0,7.3869 7.387,-0.0001 16.5,-0.0001" id="Fill-1" fill="#FFFFFF" mask="url(#mask-2)"></path>
                    </g>
                    <path d="M10.3574,15.3676 L10.9144,14.8106 C11.4244,14.3006 12.2594,14.3006 12.7694,14.8106 L20.9744,23.0146 C21.4844,23.5256 21.4844,24.3596 20.9744,24.8706 L20.4174,25.4276 C19.9074,25.9376 19.0724,25.9376 18.5624,25.4276 L10.3574,17.2216 C9.8474,16.7126 9.8474,15.8776 10.3574,15.3676" id="Fill-4" fill="#231F1F"></path>
                    <path d="M10.9146,17.8563 L10.3576,17.2993 C9.8476,16.7893 9.8476,15.9543 10.3576,15.4443 L18.5626,7.2393 C19.0726,6.7293 19.9076,6.7293 20.4166,7.2393 L20.9746,7.7963 C21.4846,8.3063 21.4846,9.1413 20.9746,9.6513 L12.7686,17.8563 C12.2596,18.3663 11.4246,18.3663 10.9146,17.8563" id="Fill-6" fill="#231F1F"></path>
                </g>
                <g id="Page-1">
                    <g id="Group-3">
                        <mask id="mask-4" fill="white">
                            <use xlink:href="#path-3"></use>
                        </mask>
                        <g id="Clip-2"></g>
                        <path d="M16.5,-0.0001 C25.612,-0.0001 33,7.3869 33,16.4999 C33,25.6129 25.612,32.9999 16.5,32.9999 C7.387,32.9999 0,25.6129 0,16.4999 C0,7.3869 7.387,-0.0001 16.5,-0.0001" id="Fill-1" fill="#FFFFFF" mask="url(#mask-4)"></path>
                    </g>
                    <path d="M10.3574,15.3676 L10.9144,14.8106 C11.4244,14.3006 12.2594,14.3006 12.7694,14.8106 L20.9744,23.0146 C21.4844,23.5256 21.4844,24.3596 20.9744,24.8706 L20.4174,25.4276 C19.9074,25.9376 19.0724,25.9376 18.5624,25.4276 L10.3574,17.2216 C9.8474,16.7126 9.8474,15.8776 10.3574,15.3676" id="Fill-4" fill="#231F1F"></path>
                    <path d="M10.9146,17.8563 L10.3576,17.2993 C9.8476,16.7893 9.8476,15.9543 10.3576,15.4443 L18.5626,7.2393 C19.0726,6.7293 19.9076,6.7293 20.4166,7.2393 L20.9746,7.7963 C21.4846,8.3063 21.4846,9.1413 20.9746,9.6513 L12.7686,17.8563 C12.2596,18.3663 11.4246,18.3663 10.9146,17.8563" id="Fill-6" fill="#231F1F"></path>
                </g>
            </g>
        </g>
    </g>
</svg>