<?xml version="1.0" encoding="utf-8"?>
<!-- Generator: Adobe Illustrator 15.0.0, SVG Export Plug-In . SVG Version: 6.00 Build 0)  -->
<!DOCTYPE svg PUBLIC "-//W3C//DTD SVG 1.1//EN" "http://www.w3.org/Graphics/SVG/1.1/DTD/svg11.dtd">
<svg version="1.1" id="Camada_1" xmlns="http://www.w3.org/2000/svg" xmlns:xlink="http://www.w3.org/1999/xlink" x="0px" y="0px"
	 width="16px" height="13px" viewBox="0 0 16 13" enable-background="new 0 0 16 13" xml:space="preserve">
<path fill="#00D300" d="M15.604,1.11l-0.461-0.47c-0.498-0.508-1.313-0.517-1.82-0.019c-0.007,0.006-0.014,0.012-0.02,0.019
	L5.48,8.609L2.707,5.782c-0.5-0.508-1.316-0.515-1.824-0.016C0.877,5.771,0.872,5.777,0.867,5.782L0.407,6.25
	c-0.505,0.523-0.505,1.352,0,1.875l4.15,4.234c0.499,0.51,1.315,0.518,1.824,0.019c0.006-0.006,0.012-0.013,0.018-0.019l9.205-9.376
	C16.107,2.46,16.107,1.632,15.604,1.11L15.604,1.11z"/>
</svg>
