<?xml version="1.0" encoding="utf-8"?>
<!-- Generator: Adobe Illustrator 16.0.3, SVG Export Plug-In . SVG Version: 6.00 Build 0)  -->
<!DOCTYPE svg PUBLIC "-//W3C//DTD SVG 1.1//EN" "http://www.w3.org/Graphics/SVG/1.1/DTD/svg11.dtd">
<svg version="1.1" id="Layer_1" xmlns="http://www.w3.org/2000/svg" xmlns:xlink="http://www.w3.org/1999/xlink" x="0px" y="0px"
	 width="32px" height="16px" viewBox="0 0 32 16" enable-background="new 0 0 32 16" xml:space="preserve">
<g id="g1330" transform="matrix(1.6698 0 0 1.6698 -95.468 -35.25)">
	
		<linearGradient id="path1362_1_" gradientUnits="userSpaceOnUse" x1="543.6597" y1="-296.5585" x2="552.1896" y2="-309.4293" gradientTransform="matrix(0.5566 0 0 -0.5566 -233.3074 -142.942)">
		<stop  offset="0" style="stop-color:#236B0D"/>
		<stop  offset="1" style="stop-color:#081B04"/>
	</linearGradient>
	<path id="path1362" fill="url(#path1362_1_)" d="M73.316,21.426c-0.037,0.007-0.074,0.023-0.106,0.044l-4.958,3.306l-2.114-1.59
		c-0.106-0.08-0.254-0.074-0.354,0.015c-0.099,0.089-0.123,0.235-0.055,0.349l2.274,3.696c0.044,0.077,0.122,0.129,0.209,0.138
		c0.087,0.011,0.174-0.02,0.235-0.084l5.118-5.402c0.085-0.087,0.105-0.219,0.049-0.326C73.557,21.463,73.436,21.405,73.316,21.426z
		"/>
	
		<linearGradient id="path2120_1_" gradientUnits="userSpaceOnUse" x1="544.4802" y1="-297.817" x2="547.0698" y2="-305.7368" gradientTransform="matrix(0.5566 0 0 -0.5566 -233.3074 -142.9467)">
		<stop  offset="0" style="stop-color:#2EDC32"/>
		<stop  offset="1" style="stop-color:#11661D"/>
	</linearGradient>
	<path id="path2120" fill="url(#path2120_1_)" d="M73.352,21.583c-0.019,0.001-0.038,0.007-0.054,0.018l-5.055,3.367l-2.204-1.653
		c-0.042-0.046-0.113-0.05-0.16-0.008c-0.046,0.042-0.051,0.113-0.009,0.16l2.275,3.696c0.018,0.029,0.05,0.049,0.085,0.053
		c0.035,0.004,0.068-0.009,0.092-0.035l5.118-5.402c0.036-0.033,0.047-0.086,0.027-0.13C73.448,21.603,73.401,21.577,73.352,21.583z
		"/>
	
		<linearGradient id="path1323_1_" gradientUnits="userSpaceOnUse" x1="542.883" y1="-297.2802" x2="553.1644" y2="-307.3329" gradientTransform="matrix(0.5566 0 0 -0.5566 -233.3074 -142.9467)">
		<stop  offset="0" style="stop-color:#97FF82"/>
		<stop  offset="1" style="stop-color:#CEFF24;stop-opacity:0"/>
	</linearGradient>
	<path id="path1323" fill="url(#path1323_1_)" d="M73.334,21.725l-5.091,3.394l-2.248-1.688l2.257,3.661L73.334,21.725z"/>
</g>
</svg>
