<?xml version="1.0" encoding="UTF-8" standalone="no"?>
<svg width="38px" height="27px" viewBox="0 0 38 27" version="1.1" xmlns="http://www.w3.org/2000/svg" xmlns:xlink="http://www.w3.org/1999/xlink">
    <!-- Generator: Sketch 39.1 (31720) - http://www.bohemiancoding.com/sketch -->
    <title>Page 1</title>
    <desc>Created with Sketch.</desc>
    <defs>
        <polygon id="path-1" points="37.9987154 0 6.28841607e-05 0 6.28841607e-05 26.9748562 37.9987154 26.9748562 37.9987154 0"></polygon>
    </defs>
    <g id="Page-1" stroke="none" stroke-width="1" fill="none" fill-rule="evenodd">
        <g id="Artboard" transform="translate(-350.000000, -365.000000)">
            <g id="Page-1" transform="translate(350.000000, 365.000000)">
                <mask id="mask-2" fill="white">
                    <use xlink:href="#path-1"></use>
                </mask>
                <g id="Clip-2"></g>
                <path d="M33.3679258,10.3916161 L30.671992,6.60397796 C30.5682331,6.45832007 30.3992544,6.37163586 30.2188667,6.37163586 L26.0136232,6.37163586 C25.7076468,6.37163586 25.4596137,6.61667862 25.4596137,6.91936283 L25.4596137,10.7069122 C25.4596137,11.0093299 25.7074671,11.2545503 26.0136232,11.2545503 L32.9149801,11.2545503 C33.3637035,11.2542839 33.6262,10.7544286 33.3679258,10.3916161 M37.9987154,20.7070372 L37.9987154,22.3686918 C37.9987154,22.6711095 37.7505924,22.9163299 37.4447059,22.9163299 L33.9487957,22.9163299 C33.6279967,20.7411424 31.7344648,19.0641227 29.4474577,19.0641227 C27.1598217,19.0641227 25.2662,20.7414089 24.9454908,22.9163299 L15.914427,22.9163299 C15.752635,21.8199878 15.192966,20.8513628 14.3814009,20.159399 L22.9446965,20.159399 L22.9446965,4.49380362 C22.9446965,3.88896809 23.4408525,3.39843849 24.0526255,3.39843849 L29.2823418,3.39843849 C30.7549092,3.39843849 32.1313537,4.12157664 32.955226,5.32822796 L36.3268052,10.2650536 C36.8212544,10.9892576 37.0854577,11.8430438 37.0854577,12.7168135 L37.0854577,20.159399 L37.4447059,20.159399 C37.7505924,20.159399 37.9987154,20.4045306 37.9987154,20.7070372 M31.1707532,23.5670832 C31.1707532,22.6260799 30.3989849,21.8633299 29.4471882,21.8633299 C28.4953915,21.8633299 27.723713,22.6260799 27.723713,23.5670832 C27.723713,24.5080865 28.4953915,25.271103 29.4471882,25.271103 C30.3989849,25.271103 31.1707532,24.5080865 31.1707532,23.5670832 M32.8941385,23.5670832 C32.8941385,25.4491786 31.3508714,26.9748562 29.4471882,26.9748562 C27.5435948,26.9748562 26.0003277,25.4491786 26.0003277,23.5670832 C26.0003277,21.6849878 27.5435948,20.159399 29.4471882,20.159399 C31.3508714,20.159399 32.8941385,21.6849878 32.8941385,23.5670832 M8.44396832,20.159399 L1.97884775,20.159399 C1.67296123,20.159399 1.4248383,20.4045306 1.4248383,20.7070372 L1.4248383,22.3686918 C1.4248383,22.6711095 1.67296123,22.9163299 1.97884775,22.9163299 L6.91112199,22.9163299 C7.07273428,21.8197214 7.63267281,20.8513628 8.44396832,20.159399 M13.1362047,23.5670832 C13.1362047,22.6260799 12.3645262,21.8633299 11.4126397,21.8633299 C10.460843,21.8633299 9.6890747,22.6260799 9.6890747,23.5670832 C9.6890747,24.5080865 10.460843,25.271103 11.4126397,25.271103 C12.3645262,25.271103 13.1362047,24.5080865 13.1362047,23.5670832 M14.8595002,23.5670832 C14.8595002,25.4491786 13.3163229,26.9748562 11.4126397,26.9748562 C9.50904634,26.9748562 7.9657792,25.4491786 7.9657792,23.5670832 C7.9657792,21.6849878 9.50904634,20.159399 11.4126397,20.159399 C13.3163229,20.159399 14.8595002,21.6849878 14.8595002,23.5670832 M6.28841607e-05,17.9729319 L6.28841607e-05,1.64317204 C6.28841607e-05,0.735563487 0.74407234,-8.88157893e-06 1.66191158,-8.88157893e-06 L19.6989754,-8.88157893e-06 C20.6167248,-8.88157893e-06 21.3606444,0.735563487 21.3606444,1.64317204 L21.3606444,17.9729319 C21.3606444,18.2754385 21.112791,18.5206589 20.8067248,18.5206589 L0.553982506,18.5206589 C0.247826478,18.5206589 6.28841607e-05,18.2754385 6.28841607e-05,17.9729319" id="Fill-1" fill="#B31E7C" mask="url(#mask-2)"></path>
            </g>
        </g>
    </g>
</svg>